<svg width="102" height="11" viewBox="0 0 102 11" fill="none" xmlns="http://www.w3.org/2000/svg">
<path d="M4.85799 10.57C3.91533 10.57 3.07533 10.3553 2.33799 9.926C1.60999 9.48733 1.03599 8.89 0.615995 8.134C0.205328 7.36867 -5.23776e-06 6.49133 -5.23776e-06 5.502C-5.23776e-06 4.51267 0.205328 3.64 0.615995 2.884C1.03599 2.11867 1.60999 1.52133 2.33799 1.092C3.06599 0.653334 3.90133 0.434 4.844 0.434C5.47866 0.434 6.07599 0.550667 6.63599 0.784C7.19599 1.008 7.69066 1.32067 8.11999 1.722C8.55866 2.12333 8.89466 2.59 9.128 3.122L7.644 3.724C7.476 3.36933 7.24733 3.05667 6.95799 2.786C6.678 2.506 6.356 2.29133 5.99199 2.142C5.628 1.99267 5.24533 1.918 4.844 1.918C4.22799 1.918 3.67733 2.072 3.192 2.38C2.71599 2.688 2.33799 3.11267 2.05799 3.654C1.78733 4.186 1.65199 4.802 1.65199 5.502C1.65199 6.202 1.78733 6.82267 2.05799 7.364C2.33799 7.90533 2.72066 8.33 3.20599 8.638C3.70066 8.946 4.26066 9.1 4.88599 9.1C5.29666 9.1 5.67933 9.02067 6.034 8.862C6.39799 8.694 6.71999 8.46533 7 8.176C7.28933 7.88667 7.518 7.55067 7.68599 7.168L9.16999 7.77C8.93666 8.32067 8.60533 8.81067 8.176 9.24C7.74666 9.66 7.24733 9.98667 6.678 10.22C6.10866 10.4533 5.50199 10.57 4.85799 10.57ZM13.6592 10.57C12.9592 10.57 12.3338 10.416 11.7832 10.108C11.2418 9.79067 10.8172 9.35667 10.5092 8.806C10.2012 8.25533 10.0472 7.62067 10.0472 6.902C10.0472 6.18333 10.1965 5.54867 10.4952 4.998C10.8032 4.44733 11.2278 4.018 11.7692 3.71C12.3105 3.39267 12.9312 3.234 13.6312 3.234C14.3312 3.234 14.9518 3.39267 15.4932 3.71C16.0345 4.018 16.4545 4.44733 16.7532 4.998C17.0612 5.54867 17.2152 6.18333 17.2152 6.902C17.2152 7.62067 17.0658 8.25533 16.7672 8.806C16.4685 9.35667 16.0485 9.79067 15.5072 10.108C14.9658 10.416 14.3498 10.57 13.6592 10.57ZM13.6592 9.128C14.0418 9.128 14.3825 9.03467 14.6812 8.848C14.9798 8.652 15.2132 8.39067 15.3812 8.064C15.5492 7.728 15.6332 7.34067 15.6332 6.902C15.6332 6.46333 15.5445 6.08067 15.3672 5.754C15.1992 5.418 14.9658 5.15667 14.6672 4.97C14.3685 4.774 14.0232 4.676 13.6312 4.676C13.2392 4.676 12.8938 4.76933 12.5952 4.956C12.2965 5.14267 12.0632 5.404 11.8952 5.74C11.7272 6.076 11.6432 6.46333 11.6432 6.902C11.6432 7.34067 11.7272 7.728 11.8952 8.064C12.0725 8.39067 12.3105 8.652 12.6092 8.848C12.9172 9.03467 13.2672 9.128 13.6592 9.128ZM23.6279 10.402L23.5579 9.1V0.602H25.1119V10.402H23.6279ZM21.3459 10.57C20.7113 10.57 20.1559 10.4207 19.6799 10.122C19.2133 9.814 18.8446 9.38467 18.5739 8.834C18.3126 8.28333 18.1819 7.63933 18.1819 6.902C18.1819 6.15533 18.3126 5.51133 18.5739 4.97C18.8446 4.41933 19.2133 3.99467 19.6799 3.696C20.1559 3.388 20.7113 3.234 21.3459 3.234C21.9339 3.234 22.4379 3.388 22.8579 3.696C23.2873 3.99467 23.6139 4.41933 23.8379 4.97C24.0619 5.51133 24.1739 6.15533 24.1739 6.902C24.1739 7.63933 24.0619 8.28333 23.8379 8.834C23.6139 9.38467 23.2873 9.814 22.8579 10.122C22.4379 10.4207 21.9339 10.57 21.3459 10.57ZM21.7379 9.142C22.0926 9.142 22.4053 9.04867 22.6759 8.862C22.9559 8.666 23.1706 8.4 23.3199 8.064C23.4786 7.728 23.5579 7.34067 23.5579 6.902C23.5579 6.46333 23.4786 6.076 23.3199 5.74C23.1706 5.404 22.9559 5.14267 22.6759 4.956C22.4053 4.76933 22.0879 4.676 21.7239 4.676C21.3506 4.676 21.0193 4.76933 20.7299 4.956C20.4406 5.14267 20.2119 5.404 20.0439 5.74C19.8853 6.076 19.8013 6.46333 19.7919 6.902C19.8013 7.34067 19.8853 7.728 20.0439 8.064C20.2119 8.4 20.4406 8.666 20.7299 8.862C21.0286 9.04867 21.3646 9.142 21.7379 9.142ZM29.9674 10.57C29.2861 10.57 28.6794 10.416 28.1474 10.108C27.6248 9.79067 27.2094 9.35667 26.9014 8.806C26.6028 8.25533 26.4534 7.62067 26.4534 6.902C26.4534 6.18333 26.6074 5.54867 26.9154 4.998C27.2234 4.44733 27.6434 4.018 28.1754 3.71C28.7168 3.39267 29.3328 3.234 30.0234 3.234C30.6488 3.234 31.2134 3.39733 31.7174 3.724C32.2214 4.04133 32.6181 4.50333 32.9074 5.11C33.2061 5.71667 33.3554 6.44 33.3554 7.28H27.8534L28.0634 7.084C28.0634 7.51333 28.1568 7.88667 28.3434 8.204C28.5301 8.512 28.7774 8.75 29.0854 8.918C29.3934 9.086 29.7341 9.17 30.1074 9.17C30.5368 9.17 30.8914 9.07667 31.1714 8.89C31.4514 8.694 31.6708 8.442 31.8294 8.134L33.2154 8.722C33.0194 9.09533 32.7674 9.422 32.4594 9.702C32.1608 9.982 31.8014 10.1967 31.3814 10.346C30.9708 10.4953 30.4994 10.57 29.9674 10.57ZM28.1614 6.272L27.9374 6.076H31.8854L31.6754 6.272C31.6754 5.88933 31.5914 5.57667 31.4234 5.334C31.2554 5.082 31.0408 4.89533 30.7794 4.774C30.5274 4.64333 30.2614 4.578 29.9814 4.578C29.7014 4.578 29.4214 4.64333 29.1414 4.774C28.8614 4.89533 28.6281 5.082 28.4414 5.334C28.2548 5.57667 28.1614 5.88933 28.1614 6.272ZM40.7786 10.402L43.1166 3.402H44.6986L42.3186 10.402H40.7786ZM36.0886 10.402L38.3706 3.402H39.7566L37.5026 10.402H36.0886ZM35.9486 10.402L33.5686 3.402H35.1506L37.4326 10.402H35.9486ZM40.7646 10.402L38.5246 3.402H39.9106L42.1926 10.402H40.7646ZM45.8106 10.402V3.402H47.3646V10.402H45.8106ZM46.5946 2.072C46.3426 2.072 46.1233 1.98333 45.9366 1.806C45.7593 1.61933 45.6706 1.4 45.6706 1.148C45.6706 0.896 45.7593 0.681333 45.9366 0.504C46.1233 0.326667 46.3426 0.238 46.5946 0.238C46.8466 0.238 47.0613 0.326667 47.2386 0.504C47.4253 0.681333 47.5186 0.896 47.5186 1.148C47.5186 1.4 47.4253 1.61933 47.2386 1.806C47.0613 1.98333 46.8466 2.072 46.5946 2.072ZM51.9986 10.57C51.2613 10.57 50.6966 10.388 50.3046 10.024C49.922 9.65067 49.7306 9.11867 49.7306 8.428V1.218H51.2846V8.134C51.2846 8.46067 51.3593 8.708 51.5086 8.876C51.6673 9.044 51.896 9.128 52.1946 9.128C52.288 9.128 52.3906 9.10933 52.5026 9.072C52.6146 9.03467 52.7406 8.96467 52.8806 8.862L53.4546 10.052C53.212 10.22 52.9693 10.346 52.7266 10.43C52.484 10.5233 52.2413 10.57 51.9986 10.57ZM48.5686 4.746V3.402H53.1746V4.746H48.5686ZM54.7227 10.402V0.602H56.2907V10.402H54.7227ZM59.4687 10.402V6.818H61.0367V10.402H59.4687ZM59.4687 6.818C59.4687 6.258 59.4034 5.82867 59.2727 5.53C59.142 5.222 58.96 5.00733 58.7267 4.886C58.5027 4.76467 58.2414 4.704 57.9427 4.704C57.4107 4.69467 57 4.86733 56.7107 5.222C56.4307 5.57667 56.2907 6.08533 56.2907 6.748H55.6887C55.6887 6.01067 55.796 5.38067 56.0107 4.858C56.2347 4.326 56.5474 3.92467 56.9487 3.654C57.35 3.374 57.826 3.234 58.3767 3.234C58.9274 3.234 59.4034 3.346 59.8047 3.57C60.206 3.794 60.5094 4.144 60.7147 4.62C60.9294 5.08667 61.0367 5.698 61.0367 6.454V6.818H59.4687ZM66.2647 10.528C65.9287 10.528 65.6767 10.388 65.5087 10.108C65.3407 9.828 65.3314 9.394 65.4807 8.806L66.5587 4.746C66.6614 4.382 66.6754 4.13 66.6007 3.99C66.5354 3.85 66.4374 3.78 66.3067 3.78C66.1014 3.78 65.8681 3.91067 65.6067 4.172C65.3547 4.424 65.0887 4.774 64.8087 5.222C64.5381 5.66067 64.2721 6.16 64.0107 6.72C63.7587 7.27067 63.5254 7.854 63.3107 8.47C63.0961 9.07667 62.9234 9.66933 62.7927 10.248C62.7647 10.3507 62.6994 10.402 62.5967 10.402H62.0087C61.8781 10.402 61.8267 10.3413 61.8547 10.22L63.8987 1.442C63.9454 1.274 63.9454 1.15733 63.8987 1.092C63.8614 1.02667 63.7774 0.989333 63.6467 0.98L63.2267 0.938C63.0867 0.928666 63.0261 0.868 63.0447 0.756C63.0634 0.672 63.1287 0.620667 63.2407 0.602C63.5767 0.546 63.8754 0.480667 64.1367 0.406C64.3981 0.322 64.6081 0.214666 64.7667 0.0839998C64.8414 0.0279999 64.9114 0 64.9767 0C65.0887 0 65.1307 0.0699999 65.1027 0.21L63.7307 6.16C63.7214 6.22533 63.7354 6.26267 63.7727 6.272C63.8101 6.28133 63.8427 6.258 63.8707 6.202C64.2441 5.43667 64.5987 4.83467 64.9347 4.396C65.2707 3.95733 65.5834 3.64467 65.8727 3.458C66.1714 3.27133 66.4421 3.178 66.6847 3.178C67.0301 3.178 67.2821 3.318 67.4407 3.598C67.5994 3.878 67.5994 4.30733 67.4407 4.886L66.3767 8.946C66.3114 9.20733 66.3067 9.40333 66.3627 9.534C66.4187 9.66467 66.5214 9.73 66.6707 9.73C66.8574 9.73 67.0394 9.60867 67.2167 9.366C67.3941 9.114 67.5854 8.64267 67.7907 7.952C67.8187 7.84933 67.8794 7.798 67.9727 7.798C68.0474 7.798 68.0894 7.826 68.0987 7.882C68.1174 7.938 68.1174 8.00333 68.0987 8.078C67.9214 8.71267 67.7301 9.212 67.5247 9.576C67.3194 9.93067 67.1094 10.178 66.8947 10.318C66.6894 10.458 66.4794 10.528 66.2647 10.528ZM69.6609 10.528C69.3249 10.528 69.0636 10.3833 68.8769 10.094C68.6903 9.80467 68.5969 9.38 68.5969 8.82C68.5969 8.288 68.6716 7.756 68.8209 7.224C68.9703 6.68267 69.1756 6.16933 69.4369 5.684C69.6983 5.19867 69.9923 4.76933 70.3189 4.396C70.6549 4.02267 71.0049 3.72867 71.3689 3.514C71.7423 3.29 72.1109 3.178 72.4749 3.178C72.6523 3.178 72.8203 3.21533 72.9789 3.29C73.1376 3.35533 73.2683 3.46267 73.3709 3.612C73.4269 3.696 73.4829 3.738 73.5389 3.738C73.5949 3.738 73.6509 3.696 73.7069 3.612C73.8096 3.46267 73.8936 3.36933 73.9589 3.332C74.0243 3.28533 74.0849 3.262 74.1409 3.262C74.2623 3.262 74.3089 3.32733 74.2809 3.458L73.0349 8.82C72.8949 9.42667 72.9883 9.73 73.3149 9.73C73.5296 9.73 73.7209 9.58533 73.8889 9.296C74.0663 9.00667 74.2436 8.55867 74.4209 7.952C74.4489 7.84933 74.5096 7.798 74.6029 7.798C74.6683 7.798 74.7103 7.826 74.7289 7.882C74.7476 7.938 74.7476 8.00333 74.7289 8.078C74.5516 8.95533 74.3136 9.58533 74.0149 9.968C73.7163 10.3413 73.3569 10.528 72.9369 10.528C72.5729 10.528 72.3116 10.374 72.1529 10.066C72.0036 9.758 71.9896 9.338 72.1109 8.806L72.2929 8.036C72.3116 7.97067 72.2976 7.93333 72.2509 7.924C72.2136 7.91467 72.1809 7.938 72.1529 7.994C71.6396 8.93667 71.1823 9.59467 70.7809 9.968C70.3889 10.3413 70.0156 10.528 69.6609 10.528ZM70.0109 9.814C70.2349 9.814 70.4823 9.67867 70.7529 9.408C71.0236 9.13733 71.2896 8.78733 71.5509 8.358C71.8216 7.92867 72.0689 7.46667 72.2929 6.972C72.5169 6.47733 72.6943 6.00133 72.8249 5.544C72.9649 5.08667 73.0349 4.69933 73.0349 4.382C73.0349 3.81267 72.8343 3.528 72.4329 3.528C72.1903 3.528 71.9336 3.64 71.6629 3.864C71.3923 4.07867 71.1309 4.37267 70.8789 4.746C70.6363 5.11933 70.4123 5.544 70.2069 6.02C70.0109 6.48667 69.8523 6.97667 69.7309 7.49C69.6096 7.994 69.5489 8.48867 69.5489 8.974C69.5489 9.30067 69.5863 9.52467 69.6609 9.646C69.7449 9.758 69.8616 9.814 70.0109 9.814ZM75.9418 10.402C75.8111 10.402 75.7598 10.3413 75.7878 10.22L77.1178 4.634C77.1645 4.42867 77.1691 4.27 77.1318 4.158C77.1038 4.03667 77.0198 3.976 76.8798 3.976C76.7118 3.976 76.5251 4.102 76.3198 4.354C76.1238 4.59667 75.8998 5.06333 75.6478 5.754C75.6105 5.87533 75.5451 5.936 75.4518 5.936C75.3118 5.936 75.2745 5.852 75.3398 5.684C75.5451 5.04 75.7598 4.536 75.9838 4.172C76.2171 3.808 76.4505 3.55133 76.6838 3.402C76.9171 3.25267 77.1318 3.178 77.3278 3.178C77.6358 3.178 77.8551 3.29467 77.9858 3.528C78.1165 3.752 78.1211 4.12533 77.9998 4.648L77.8458 5.306C77.8365 5.37133 77.8505 5.40867 77.8878 5.418C77.9251 5.42733 77.9578 5.404 77.9858 5.348C78.3405 4.536 78.6625 3.97133 78.9518 3.654C79.2411 3.33667 79.5725 3.178 79.9458 3.178C80.1978 3.178 80.3845 3.248 80.5058 3.388C80.6365 3.51867 80.7018 3.70067 80.7018 3.934C80.7018 4.16733 80.6458 4.354 80.5338 4.494C80.4218 4.634 80.2771 4.704 80.0998 4.704C79.9505 4.704 79.8431 4.66667 79.7778 4.592C79.7125 4.51733 79.6611 4.43333 79.6238 4.34C79.5958 4.23733 79.5631 4.14867 79.5258 4.074C79.4885 3.99933 79.4278 3.962 79.3438 3.962C79.2038 3.962 79.0218 4.13933 78.7978 4.494C78.5738 4.84867 78.3311 5.32933 78.0698 5.936C77.8178 6.53333 77.5705 7.20533 77.3278 7.952C77.0945 8.69867 76.8891 9.464 76.7118 10.248C76.6838 10.3507 76.6185 10.402 76.5158 10.402H75.9418ZM81.8241 10.528C81.5161 10.528 81.1894 10.4813 80.8441 10.388C80.5081 10.2947 80.2514 10.178 80.0741 10.038C80.0088 9.982 79.9808 9.898 79.9901 9.786L80.2981 7.952C80.3168 7.83067 80.3728 7.77 80.4661 7.77C80.5688 7.77 80.6201 7.83533 80.6201 7.966L80.6481 8.638C80.6668 9.17 80.7928 9.562 81.0261 9.814C81.2688 10.0567 81.5628 10.178 81.9081 10.178C82.2068 10.178 82.4634 10.0847 82.6781 9.898C82.8928 9.702 83.0001 9.41733 83.0001 9.044C83.0001 8.82933 82.9674 8.63333 82.9021 8.456C82.8368 8.26933 82.7341 8.07333 82.5941 7.868C82.4541 7.65333 82.2628 7.39667 82.0201 7.098C81.7028 6.68733 81.4648 6.33733 81.3061 6.048C81.1568 5.74933 81.0821 5.44133 81.0821 5.124C81.0821 4.536 81.2641 4.06467 81.6281 3.71C82.0014 3.35533 82.4728 3.178 83.0421 3.178C83.2941 3.178 83.5368 3.21533 83.7701 3.29C84.0128 3.36467 84.2134 3.47667 84.3721 3.626C84.4561 3.69133 84.4841 3.77533 84.4561 3.878L84.0641 5.754C84.0361 5.87533 83.9801 5.936 83.8961 5.936C83.8121 5.936 83.7608 5.87067 83.7421 5.74L83.7001 5.068C83.6628 4.508 83.5881 4.10667 83.4761 3.864C83.3734 3.62133 83.1541 3.5 82.8181 3.5C82.5194 3.5 82.2768 3.60267 82.0901 3.808C81.9034 4.01333 81.8101 4.26067 81.8101 4.55C81.8101 4.858 81.8941 5.14267 82.0621 5.404C82.2301 5.656 82.4588 5.978 82.7481 6.37C83.1308 6.874 83.3874 7.27533 83.5181 7.574C83.6581 7.87267 83.7281 8.176 83.7281 8.484C83.7281 8.876 83.6394 9.226 83.4621 9.534C83.2941 9.842 83.0654 10.0847 82.7761 10.262C82.4868 10.4393 82.1694 10.528 81.8241 10.528ZM88.9327 10.528C88.5967 10.528 88.3447 10.388 88.1767 10.108C88.0087 9.828 87.9994 9.394 88.1487 8.806L89.2267 4.746C89.3294 4.382 89.3434 4.13 89.2687 3.99C89.2034 3.85 89.1054 3.78 88.9747 3.78C88.7694 3.78 88.536 3.91067 88.2747 4.172C88.0227 4.424 87.7567 4.774 87.4767 5.222C87.206 5.66067 86.94 6.16 86.6787 6.72C86.4267 7.27067 86.1934 7.854 85.9787 8.47C85.764 9.07667 85.5914 9.66933 85.4607 10.248C85.4327 10.3507 85.3674 10.402 85.2647 10.402H84.6767C84.546 10.402 84.4947 10.3413 84.5227 10.22L86.5667 1.442C86.6134 1.274 86.6134 1.15733 86.5667 1.092C86.5294 1.02667 86.4454 0.989333 86.3147 0.98L85.8947 0.938C85.7547 0.928666 85.694 0.868 85.7127 0.756C85.7314 0.672 85.7967 0.620667 85.9087 0.602C86.2447 0.546 86.5434 0.480667 86.8047 0.406C87.066 0.322 87.276 0.214666 87.4347 0.0839998C87.5094 0.0279999 87.5794 0 87.6447 0C87.7567 0 87.7987 0.0699999 87.7707 0.21L86.3987 6.16C86.3894 6.22533 86.4034 6.26267 86.4407 6.272C86.478 6.28133 86.5107 6.258 86.5387 6.202C86.912 5.43667 87.2667 4.83467 87.6027 4.396C87.9387 3.95733 88.2514 3.64467 88.5407 3.458C88.8394 3.27133 89.11 3.178 89.3527 3.178C89.698 3.178 89.95 3.318 90.1087 3.598C90.2674 3.878 90.2674 4.30733 90.1087 4.886L89.0447 8.946C88.9794 9.20733 88.9747 9.40333 89.0307 9.534C89.0867 9.66467 89.1894 9.73 89.3387 9.73C89.5254 9.73 89.7074 9.60867 89.8847 9.366C90.062 9.114 90.2534 8.64267 90.4587 7.952C90.4867 7.84933 90.5474 7.798 90.6407 7.798C90.7154 7.798 90.7574 7.826 90.7667 7.882C90.7854 7.938 90.7854 8.00333 90.7667 8.078C90.5894 8.71267 90.398 9.212 90.1927 9.576C89.9874 9.93067 89.7774 10.178 89.5627 10.318C89.3574 10.458 89.1474 10.528 88.9327 10.528ZM92.3289 10.528C91.9929 10.528 91.7316 10.3833 91.5449 10.094C91.3582 9.80467 91.2649 9.38 91.2649 8.82C91.2649 8.288 91.3396 7.756 91.4889 7.224C91.6382 6.68267 91.8436 6.16933 92.1049 5.684C92.3662 5.19867 92.6602 4.76933 92.9869 4.396C93.3229 4.02267 93.6729 3.72867 94.0369 3.514C94.4102 3.29 94.7789 3.178 95.1429 3.178C95.3202 3.178 95.4882 3.21533 95.6469 3.29C95.8056 3.35533 95.9362 3.46267 96.0389 3.612C96.0949 3.696 96.1509 3.738 96.2069 3.738C96.2629 3.738 96.3189 3.696 96.3749 3.612C96.4776 3.46267 96.5616 3.36933 96.6269 3.332C96.6922 3.28533 96.7529 3.262 96.8089 3.262C96.9302 3.262 96.9769 3.32733 96.9489 3.458L95.7029 8.82C95.5629 9.42667 95.6562 9.73 95.9829 9.73C96.1976 9.73 96.3889 9.58533 96.5569 9.296C96.7342 9.00667 96.9116 8.55867 97.0889 7.952C97.1169 7.84933 97.1776 7.798 97.2709 7.798C97.3362 7.798 97.3782 7.826 97.3969 7.882C97.4156 7.938 97.4156 8.00333 97.3969 8.078C97.2196 8.95533 96.9816 9.58533 96.6829 9.968C96.3842 10.3413 96.0249 10.528 95.6049 10.528C95.2409 10.528 94.9796 10.374 94.8209 10.066C94.6716 9.758 94.6576 9.338 94.7789 8.806L94.9609 8.036C94.9796 7.97067 94.9656 7.93333 94.9189 7.924C94.8816 7.91467 94.8489 7.938 94.8209 7.994C94.3076 8.93667 93.8502 9.59467 93.4489 9.968C93.0569 10.3413 92.6836 10.528 92.3289 10.528ZM92.6789 9.814C92.9029 9.814 93.1502 9.67867 93.4209 9.408C93.6916 9.13733 93.9576 8.78733 94.2189 8.358C94.4896 7.92867 94.7369 7.46667 94.9609 6.972C95.1849 6.47733 95.3622 6.00133 95.4929 5.544C95.6329 5.08667 95.7029 4.69933 95.7029 4.382C95.7029 3.81267 95.5022 3.528 95.1009 3.528C94.8582 3.528 94.6016 3.64 94.3309 3.864C94.0602 4.07867 93.7989 4.37267 93.5469 4.746C93.3042 5.11933 93.0802 5.544 92.8749 6.02C92.6789 6.48667 92.5202 6.97667 92.3989 7.49C92.2776 7.994 92.2169 8.48867 92.2169 8.974C92.2169 9.30067 92.2542 9.52467 92.3289 9.646C92.4129 9.758 92.5296 9.814 92.6789 9.814ZM98.7498 10.542C98.4418 10.542 98.2224 10.43 98.0918 10.206C97.9611 9.97267 97.9564 9.59467 98.0778 9.072L99.8558 1.442C99.9024 1.274 99.9024 1.15733 99.8558 1.092C99.8184 1.02667 99.7344 0.989333 99.6038 0.98L99.1838 0.938C99.0438 0.928666 98.9831 0.868 99.0018 0.756C99.0204 0.672 99.0858 0.620667 99.1978 0.602C99.5338 0.546 99.8324 0.480667 100.094 0.406C100.355 0.322 100.565 0.214666 100.724 0.0839998C100.798 0.0279999 100.868 0 100.934 0C101.046 0 101.088 0.0699999 101.06 0.21L98.9878 9.086C98.9411 9.29133 98.9318 9.45467 98.9598 9.576C98.9971 9.688 99.0858 9.744 99.2258 9.744C99.3938 9.744 99.5758 9.62267 99.7718 9.38C99.9771 9.128 100.206 8.65667 100.458 7.966C100.495 7.84467 100.56 7.784 100.654 7.784C100.794 7.784 100.831 7.868 100.766 8.036C100.57 8.67067 100.35 9.17467 100.108 9.548C99.8744 9.912 99.6411 10.1687 99.4078 10.318C99.1744 10.4673 98.9551 10.542 98.7498 10.542Z" fill="black"/>
</svg>
